<?xml version="1.0" encoding="UTF-8"?>
<svg width="100px" height="100px" viewBox="0 0 100 100" version="1.1" xmlns="http://www.w3.org/2000/svg" xmlns:xlink="http://www.w3.org/1999/xlink">
    <!-- Generator: Sketch 47.1 (45422) - http://www.bohemiancoding.com/sketch -->
    <!-- Eye SVG by Gregor Cresnar (https://www.flaticon.com/authors/gregor-cresnar) -->
    <title>icon</title>
    <desc>Created with Sketch.</desc>
    <defs></defs>
    <g id="Page-1" stroke="none" stroke-width="1" fill="none" fill-rule="evenodd">
        <g id="icon" fill-rule="nonzero">
            <circle id="circle" fill="#2A479C" cx="50" cy="50" r="50"></circle>
            <path d="M50.2936256,31 C37.9535432,31 26.7629118,37.7513727 18.505362,48.7173988 C17.831546,49.6158202 17.831546,50.8709677 18.505362,51.7693892 C26.7629118,62.7486273 37.9535432,69.5 50.2936256,69.5 C62.633708,69.5 73.8243394,62.7486273 82.0818892,51.7826012 C82.7557052,50.8841798 82.7557052,49.6290323 82.0818892,48.7306108 C73.8243394,37.7513727 62.633708,31 50.2936256,31 Z M51.1788349,63.8055937 C42.9873456,64.3208648 36.2227608,57.5694921 36.7380319,49.3647907 C37.1608185,42.6002059 42.6438315,37.1171929 49.4084163,36.6944063 C57.5999056,36.1791352 64.3644904,42.9305079 63.8492193,51.1352093 C63.4132207,57.886582 57.9302076,63.3695951 51.1788349,63.8055937 Z M50.7692605,57.5430679 C46.3564259,57.8205216 42.7098919,54.1871997 43.0005577,49.7743651 C43.225163,46.1278312 46.1846688,43.1815374 49.8312028,42.94372 C54.2440374,42.6662663 57.8905714,46.2995882 57.5999056,50.7124228 C57.3620882,54.3721688 54.4025824,57.3184626 50.7692605,57.5430679 Z" id="Eye" fill="#FAA150"></path>
        </g>
    </g>
</svg>
