<svg xmlns="http://www.w3.org/2000/svg" width="100" height="100" viewBox="0 0 100 100">
    <path fill="#ae1f00" d="M100 50c0 27.614-22.386 50-50 50S0 77.614 0 50 22.386 0 50 0a50 50 0 0 1 50 50z"/>
    <path fill="#ffffff" d="M81.015 48.787c-.574-.597-14-15.075-31.018-15.075S19.626 48.19 19.07 48.787a1.78 1.78 0 0 0 0 2.425c.556.597 14 15.075 30.926 15.075S80.404 51.81 80.978 51.213a1.78 1.78 0 0 0 .037-2.425zM50 61c-6.075 0-11-4.925-11-11s4.925-11 11-11 11 4.925 11 11-4.925 11-11 11zm7-11a7 7 0 1 1-14 0 7 7 0 1 1 14 0z"/>
    <path fill="#ffe9b3" d="M49.996 33.712v5.27C56 39 61 44 61 50s-5 11-11.004 11.03v5.258c16.981 0 30.407-14.478 30.981-15.075a1.78 1.78 0 0 0 0-2.425c-.537-.597-13.963-15.075-30.981-15.075zM57 50c0-3.866-3.136-7-7.004-7v14C53.864 57 57 53.866 57 50z"/>
</svg>
